<?xml version="1.0" encoding="UTF-8"?>
<svg id="Capa_1" xmlns="http://www.w3.org/2000/svg" version="1.1" viewBox="0 0 800 800">
  <!-- Generator: Adobe Illustrator 29.5.1, SVG Export Plug-In . SVG Version: 2.1.0 Build 141)  -->
  <defs>
    <style>
      .st0 {
        fill: #fff;
      }
    </style>
  </defs>
  <path class="st0" d="M271.383,602.291c-5.665,0-11.174-2.941-14.209-8.199-4.527-7.84-1.841-17.861,5.999-22.39l297.396-171.703-297.395-171.701c-7.84-4.526-10.526-14.552-5.999-22.39,4.527-7.84,14.55-10.523,22.39-5.999l321.982,185.896c5.071,2.927,8.196,8.338,8.196,14.195s-3.124,11.267-8.196,14.195l-321.982,185.897c-2.582,1.492-5.401,2.2-8.181,2.2Z"/>
  <path class="st0" d="M400,800c-106.843,0-207.292-41.607-282.844-117.16C41.609,607.292,0,506.845,0,400S41.609,192.708,117.156,117.156C192.708,41.609,293.155,0,400,0s207.292,41.609,282.842,117.156c75.553,75.55,117.16,175.999,117.16,282.844s-41.607,207.292-117.16,282.844c-75.55,75.549-175.999,117.156-282.842,117.156ZM400,32.782c-98.087,0-190.303,38.198-259.662,107.556S32.782,301.913,32.782,400s38.198,190.305,107.556,259.662c69.359,69.359,161.575,107.556,259.662,107.556s190.303-38.198,259.662-107.556,107.555-161.575,107.555-259.662-38.198-190.303-107.555-259.662S498.087,32.782,400,32.782Z"/>
</svg>