<?xml version="1.0" encoding="UTF-8"?>
<svg id="Capa_1" xmlns="http://www.w3.org/2000/svg" version="1.1" viewBox="0 0 472.11 472.3">
  <!-- Generator: Adobe Illustrator 29.5.1, SVG Export Plug-In . SVG Version: 2.1.0 Build 141)  -->
  <defs>
    <style>
      .st0 {
        fill: #fff;
      }
    </style>
  </defs>
  <path class="st0" d="M472.11,218.4v36.89c-2.37,8.09-2.53,16.65-4.13,24.92-17.37,89.84-86.09,162.61-174.87,184.88l-38.76,6.91c-12.3-.72-25.67.97-37.83,0C12.35,455.63-75.61,199.41,77.6,60.69,222.84-70.8,458.72,24.84,472.11,218.4ZM129.52,133.79c-15.78,2.65-16.23,27.39-.24,29.31,11.02,1.32,27.16.94,27.94-13.62.82-15.14-16.22-17.61-27.7-15.68v-.01ZM191.91,159.06c2.17,2.28,6.12,4.12,9.33,4.04h141.24c17.41-4.23,15.47-26.98-1.86-29.55h-138.42c-12.93.99-19.33,15.98-10.29,25.5v.01ZM128.59,221.38c-15.53,3.2-15.22,27.61,2.51,29.35,6.94.68,16.37.77,21.64-4.28,8.35-8.01,3.72-23.41-7.81-25.21-3.15-.49-13.29-.48-16.34.15v-.01ZM199.65,221.39c-16.55,4.17-15.35,26.97,1.62,29.29,47.89-.67,96.24,1.34,143.86-1.02,14.64-6.56,11.72-26.67-4.52-28.5l-140.96.22v.01ZM127.67,308.98c-8.14,1.66-12.49,12.59-9.36,20,4.19,9.91,16.49,10.46,25.68,9.21,12.64-1.72,17.91-18.55,7.46-26.66-4.57-3.55-18.16-3.7-23.78-2.56v.01ZM191.9,312.77c-9.12,9.11-2.52,24.78,10.3,25.51h138.42c17.33-2.57,19.27-25.31,1.86-29.53-48.34.51-96.91-.92-145.11.72-1.59,1.1-4.17,2-5.47,3.3h0Z"/>
</svg>