<?xml version="1.0" encoding="UTF-8"?>
<svg id="Capa_1" xmlns="http://www.w3.org/2000/svg" version="1.1" viewBox="0 0 302.959 262.659">
  <!-- Generator: Adobe Illustrator 29.5.1, SVG Export Plug-In . SVG Version: 2.1.0 Build 141)  -->
  <defs>
    <style>
      .st0 {
        fill: #0094d4;
      }
    </style>
  </defs>
  <path class="st0" d="M267.116,109.628v-20.178c0-.2-.01-.401-.031-.6-2.523-24.236-15.355-46.596-36.131-62.963C209.763,9.193,181.547,0,151.503,0c-30.488,0-56.337,8.403-76.83,24.973-18.854,15.246-32.206,37.062-38.615,63.091-.111.453-.168.918-.168,1.385v20.174C15.694,111.576,0,125.169,0,141.607v17.626c0,16.667,16.133,30.42,36.736,32.067,1.607,12.387,8.134,23.244,17.558,30.547v29.845c0,3.2,2.594,5.795,5.795,5.795s5.775-2.576,5.793-5.761c0-.012.002-.022.002-.034v-23.288c5.168,2.004,10.778,3.115,16.645,3.115h7.926c6.432,8.275,14.334,15.249,23.287,20.487,11.588,6.78,24.931,10.652,39.124,10.652,13.877,0,26.943-3.697,38.349-10.198,25.045-14.275,42.078-42.073,42.078-73.956v-46.407c0-.015-.002-.03-.002-.045,0-.133-.01-.264-.02-.394-.005-.063-.006-.127-.013-.189-.013-.123-.035-.244-.056-.364-.012-.07-.021-.141-.036-.211-.022-.102-.051-.2-.077-.3-.023-.086-.043-.173-.071-.258-.025-.079-.056-.154-.085-.231-.037-.101-.072-.203-.115-.301-.027-.063-.059-.122-.088-.184-.051-.107-.101-.215-.158-.319-.032-.058-.069-.113-.103-.169-.061-.102-.121-.205-.188-.303-.044-.064-.093-.125-.14-.187-.063-.085-.124-.17-.191-.252-.063-.075-.132-.146-.199-.219-.058-.062-.113-.127-.173-.187-.08-.079-.165-.153-.25-.227-.054-.048-.106-.098-.162-.144-.088-.072-.182-.138-.274-.205-.059-.042-.116-.088-.176-.128-.086-.058-.177-.109-.267-.162-.073-.043-.145-.09-.221-.13-.076-.041-.156-.076-.234-.113-.095-.045-.189-.093-.287-.133-.064-.027-.131-.048-.197-.072-.116-.043-.233-.086-.352-.122-.06-.018-.121-.031-.181-.047-.127-.033-.255-.066-.386-.091-.015-.003-.029-.008-.044-.01-5.829-1.073-13.804-3.98-22.336-7.648-22.824-9.813-49.632-25.077-50.001-25.288-2.025-1.157-4.547-.987-6.399.431-16.885,12.933-34.789,20.801-48.273,25.405-12.799,4.37-21.616,5.801-21.794,5.829-1.119.173-2.109.66-2.905,1.352-2.525.625-4.399,2.9-4.399,5.619v46.407c0,15.05,3.799,29.188,10.441,41.425h-.351c-6.03,0-11.703-1.554-16.645-4.277v-98.789c0-43.421,38.954-78.746,86.834-78.746s86.834,35.325,86.834,78.746v135.914c0,3.201,2.594,5.795,5.795,5.795s5.795-2.594,5.795-5.795V116.864c0-49.811-44.153-90.335-98.424-90.335S54.294,67.053,54.294,116.864v88.429c-4.004-5.645-6.367-12.532-6.367-19.965,0-.878-.201-1.706-.55-2.452v-62.195c.065-.347.102-.703.102-1.069v-29.452c5.86-23.251,17.773-42.665,34.481-56.175,18.378-14.861,41.776-22.396,69.543-22.396,27.454,0,53.123,8.31,72.278,23.401,18.211,14.345,29.476,33.785,31.746,54.766v28.706c0,.01.001.02.001.03.001.246.022.488.054.726v66.439c0,3.169,2.545,5.75,5.714,5.794l.209.005c.186.005.372.009.559.009,22.549,0,40.894-14.46,40.894-32.233v-17.626c0-16.424-15.67-30.01-35.842-31.979h0ZM84.028,178.505v-42.374c3.491-.682,10.32-2.205,19.115-5.086,8.138-2.666,17.956-6.496,28.366-11.903,7.26-3.77,14.806-8.305,22.27-13.747,4.862,2.712,14.456,7.967,25.487,13.497,9.158,4.591,19.304,9.368,28.558,13.039,4.987,1.979,9.706,3.629,13.879,4.76v41.814c0,40.012-30.88,72.564-68.837,72.564-18.13,0-34.642-7.431-46.949-19.55h8.806c2.424,4.487,7.17,7.543,12.618,7.543h16.44c7.903,0,14.333-6.43,14.333-14.332s-6.43-14.332-14.333-14.332h-16.44c-6.217,0-11.508,3.986-13.488,9.531h-17.472c-7.781-11.754-12.352-26.036-12.352-41.425h0ZM291.369,159.233c0,10.155-10.465,18.622-24.197,20.33v-58.286c13.732,1.707,24.197,10.174,24.197,20.33v17.626ZM11.59,141.607c0-10.156,10.465-18.623,24.197-20.33v58.286c-13.732-1.707-24.197-10.174-24.197-20.33,0,0,0-17.626,0-17.626Z"/>
</svg>