<?xml version="1.0" encoding="UTF-8"?>
<svg id="Capa_1" xmlns="http://www.w3.org/2000/svg" version="1.1" viewBox="0 0 189.397 130">
  <!-- Generator: Adobe Illustrator 29.5.1, SVG Export Plug-In . SVG Version: 2.1.0 Build 141)  -->
  <defs>
    <style>
      .st0 {
        fill: #0094d4;
      }
    </style>
  </defs>
  <path class="st0" d="M48.003,90.243c-10.961,0-19.879,8.917-19.879,19.879s8.918,19.879,19.879,19.879,19.879-8.917,19.879-19.879-8.918-19.879-19.879-19.879ZM48.003,123.961c-7.631,0-13.84-6.209-13.84-13.84s6.209-13.84,13.84-13.84,13.84,6.209,13.84,13.84-6.208,13.84-13.84,13.84Z"/>
  <path class="st0" d="M48.003,101.817c-4.586,0-8.304,3.718-8.304,8.304s3.718,8.304,8.304,8.304,8.304-3.718,8.304-8.304-3.718-8.304-8.304-8.304Z"/>
  <path class="st0" d="M149.629,90.243c-10.961,0-19.879,8.917-19.879,19.879s8.918,19.879,19.879,19.879,19.879-8.917,19.879-19.879-8.918-19.879-19.879-19.879ZM149.629,123.961c-7.632,0-13.84-6.209-13.84-13.84s6.208-13.84,13.84-13.84,13.84,6.209,13.84,13.84-6.208,13.84-13.84,13.84Z"/>
  <path class="st0" d="M149.629,101.817c-4.586,0-8.304,3.718-8.304,8.304s3.718,8.304,8.304,8.304,8.304-3.718,8.304-8.304-3.718-8.304-8.304-8.304Z"/>
  <path class="st0" d="M187.545,50.571l-16.668-6.985c-2.124-3.79-10.199-17.792-16.545-23.304-.549-.477-1.253-.74-1.98-.74h-24.719V3.019c0-1.668-1.352-3.019-3.019-3.019H3.019C1.352,0,0,1.352,0,3.019v73.741c0,1.668,1.352,3.019,3.019,3.019h5.245v22.035c0,1.668,1.352,3.019,3.019,3.019h13.313c1.277,0,2.416-.804,2.844-2.007,3.093-8.688,11.356-14.526,20.562-14.526s17.469,5.838,20.562,14.526c.428,1.203,1.567,2.007,2.844,2.007h54.813c1.277,0,2.416-.803,2.844-2.007,3.093-8.689,11.356-14.527,20.562-14.527s17.469,5.838,20.562,14.527c.428,1.203,1.567,2.007,2.844,2.007h13.342c1.668,0,3.019-1.352,3.019-3.019v-48.46c0-1.217-.73-2.314-1.852-2.785ZM127.678,25.58h23.496c6.337,6.171,14.831,21.668,14.92,21.831.328.601.851,1.073,1.483,1.338l15.782,6.614v18.715h-55.681V25.58ZM6.039,14.86h7.631v50.3h-7.631V14.86ZM17.551,14.86h8.117v50.3h-8.117V14.86ZM29.55,14.86h8.117v50.3h-8.117V14.86ZM41.549,14.86h8.117v50.3h-8.117V14.86ZM53.548,14.86h8.117v50.3h-8.117V14.86ZM65.547,14.86h8.117v50.3h-8.117V14.86ZM77.546,14.86h8.117v50.3h-8.117V14.86ZM89.544,14.86h8.117v50.3h-8.117V14.86ZM101.543,14.86h8.117v50.3h-8.117V14.86ZM113.542,14.86h8.051v50.3h-8.051V14.86ZM6.039,6.039h115.555v4.508H6.039v-4.508ZM6.039,73.741v-4.268h115.555v4.268H6.039ZM183.358,98.796h-8.282c-4.448-9.972-14.417-16.533-25.447-16.533s-20.999,6.561-25.448,16.533h-50.731c-4.448-9.972-14.417-16.533-25.447-16.533s-21,6.561-25.448,16.533h-8.253v-18.678h169.055v18.678Z"/>
  <path class="st0" d="M147.259,30.786h-15.904v18.857h29.359l-.159-.267c-3.289-5.52-9.021-13.97-13.296-18.59Z"/>
  <rect class="st0" x="135.628" y="56.814" width="9.561" height="3.477"/>
</svg>