<?xml version="1.0" encoding="UTF-8"?>
<svg id="Capa_1" xmlns="http://www.w3.org/2000/svg" version="1.1" viewBox="0 0 898.28 207.02">
  <!-- Generator: Adobe Illustrator 29.5.1, SVG Export Plug-In . SVG Version: 2.1.0 Build 141)  -->
  <defs>
    <style>
      .st0 {
        fill: #fff;
      }
    </style>
  </defs>
  <path class="st0" d="M93.84,168.35c6.26,0,9.67-3.41,9.67-9.67v-21.61c0-6.25-3.41-8.24-9.67-9.67l-52.89-11.37C18.77,111.19,0,97.82,0,75.08v-34.69C0,16.49,16.49,0,40.38,0h27.58v38.68h-17.35c-6.26,0-9.67,3.41-9.67,9.67v19.34c0,6.26,3.41,8.25,9.67,9.67l52.89,11.37c22.18,4.84,40.95,18.2,40.95,40.95v36.97c0,23.89-16.49,40.38-40.38,40.38h-27.58v-38.67h17.35v-.01ZM40.38,207.02c-23.89,0-40.38-16.49-40.38-40.38v-26.16h39.81v18.2c0,6.26,3.41,9.67,9.67,9.67h18.48v38.67h-27.58ZM100.67,0c23.89,0,40.38,16.49,40.38,40.38v23.89h-39.81v-15.92c0-6.26-3.41-9.67-9.67-9.67h-15.07V0s24.17,0,24.17,0Z"/>
  <path class="st0" d="M313.08,1.14v38.11h-147.87V1.14h147.87ZM218.67,205.89V47.21h40.95v158.68h-40.95Z"/>
  <path class="st0" d="M371.94,1.14h1.99l17.63,60.57-43.23,144.18h-42.37L371.94,1.14ZM428.25,159.82h-58.3l11.38-38.67h35.83L382.46,1.14h37.25l65.97,204.75h-44.08l-13.36-46.07h.01Z"/>
  <path class="st0" d="M753.25,205.89V1.14h40.95v204.75h-40.95ZM857.9,1.14c23.89,0,40.38,16.49,40.38,40.38v51.76c0,23.89-16.49,40.38-40.38,40.38h-55.17v-38.67h44.93c6.26,0,9.67-3.41,9.67-9.67v-35.83c0-6.26-3.41-9.67-9.67-9.67h-44.93V1.14h55.17Z"/>
  <g>
    <polygon class="st0" points="512.69 1.14 512.69 205.89 551.37 205.89 551.37 89.86 513.54 1.14 512.69 1.14"/>
    <polygon class="st0" points="663.41 1.14 612.01 117.74 612.01 134.82 609.01 134.82 609.01 117.74 557.62 1.14 522.08 1.14 595.73 173.18 625.3 173.18 698.95 1.14 663.41 1.14"/>
    <polygon class="st0" points="707.48 1.14 669.66 89.86 669.66 205.89 708.34 205.89 708.34 1.14 707.48 1.14"/>
  </g>
</svg>