<?xml version="1.0" encoding="UTF-8"?>
<svg id="Capa_1" xmlns="http://www.w3.org/2000/svg" version="1.1" viewBox="0 0 152.604 150">
  <!-- Generator: Adobe Illustrator 29.5.1, SVG Export Plug-In . SVG Version: 2.1.0 Build 141)  -->
  <defs>
    <style>
      .st0 {
        fill: #0094d4;
      }
    </style>
  </defs>
  <path class="st0" d="M26.208,68.652v53.59c40.193,1.233,75.61,28.953,115.801,27.718v-53.59c-40.194,1.449-75.608-26.315-115.801-27.718ZM137.292,140.526c-2.606,0-4.718,2.112-4.718,4.718,0,.063.017.122.019.189-33.914,1.271-63.051-26.453-96.97-27.718.002-.065.019-.124.019-.189,0-2.606-2.112-4.718-4.718-4.718-.063,0-.122.017-.189.019v-34.759c.065.002.124.019.189.019,2.606,0,4.718-2.112,4.718-4.72,0-.063-.017-.124-.019-.187,33.916.593,63.052,28.319,96.97,27.718-.002.063-.019.122-.019.187,0,2.606,2.11,4.72,4.718,4.72.065,0,.126-.017.189-.019v34.759c-.065-.004-.124-.019-.189-.019ZM97.991,113.601c0,9.902-5.786,14.104-12.924,14.104s-12.926-11.848-12.926-21.75,5.786-13.146,12.926-13.146c7.138,0,12.924,10.892,12.924,20.793Z"/>
  <g>
    <path class="st0" d="M22.385,64.693l3.886.136c.197-.868.153-1.799-.184-2.692-.023-.059-.057-.109-.082-.168,31.954-11.382,68.984,4.318,100.52-8.178.021.059.027.12.048.182.918,2.439,3.638,3.676,6.077,2.757.061-.023.111-.059.17-.084l12.23,32.536c-.059.023-.12.027-.184.05-1.522.572-2.575,1.847-2.927,3.317l3.89-.14v6.448c2.277-.723,4.536-1.535,6.773-2.454l-18.858-50.163c-37.112,15.499-80.031,1.977-118.149,14.805l6.786,18.051v-14.402h.002Z"/>
    <path class="st0" d="M99.864,85.099c.128-2.135-.241-4.546-1.256-7.245-3.483-9.266-12.733-17.424-19.414-14.914-5.303,1.994-9.072,5.612-8.667,11.647,4.089,1.432,8.143,2.919,12.165,4.399,5.8,2.133,11.5,4.229,17.172,6.113Z"/>
  </g>
  <g>
    <path class="st0" d="M18.007,78.313l-7.947-7.017c.044-.046.096-.08.138-.128,1.722-1.956,1.539-4.934-.417-6.658-.048-.044-.103-.069-.151-.111,22.892-25.033,62.961-28.521,84.96-54.341.044.044.08.096.128.136,1.952,1.726,4.936,1.543,6.658-.413.042-.048.069-.105.111-.153l26.055,23.006c-.042.046-.096.08-.138.13-1.724,1.954-1.541,4.932.415,6.656.046.04.103.069.153.111-2.028,2.479-4.225,4.754-6.557,6.865,2.852-.767,5.674-1.688,8.468-2.753,2.716-2.546,5.297-5.257,7.715-8.17L97.427,0C71.909,31.088,27.659,39.259,0,68.457l21.406,18.902-3.399-9.046Z"/>
    <path class="st0" d="M85.925,50.656c-.86-2.093-2.39-4.202-4.716-6.255-7.421-6.553-19.414-9.424-24.14-4.076-2.892,3.276-4.525,6.977-3.665,10.86,6.261-.252,12.513-.3,18.697-.344,4.666-.034,9.271-.073,13.823-.185Z"/>
  </g>
</svg>