<?xml version="1.0" encoding="UTF-8"?>
<svg id="Capa_1" xmlns="http://www.w3.org/2000/svg" version="1.1" xmlns:xlink="http://www.w3.org/1999/xlink" viewBox="0 0 47.663 47.663">
  <!-- Generator: Adobe Illustrator 29.5.1, SVG Export Plug-In . SVG Version: 2.1.0 Build 141)  -->
  <defs>
    <style>
      .st0 {
        fill: #ff1753;
      }

      .st0, .st1, .st2 {
        fill-rule: evenodd;
      }

      .st1 {
        fill: #fff;
      }

      .st2 {
        fill: #00c9d0;
      }

      .st3 {
        fill: url(#Degradado_sin_nombre);
      }
    </style>
    <linearGradient id="Degradado_sin_nombre" data-name="Degradado sin nombre" x1="6.98" y1="43.02" x2="40.682" y2="9.318" gradientTransform="translate(0 50) scale(1 -1)" gradientUnits="userSpaceOnUse">
      <stop offset="0" stop-color="#23004a"/>
      <stop offset=".957" stop-color="#010003"/>
      <stop offset="1" stop-color="#000"/>
    </linearGradient>
  </defs>
  <circle class="st3" cx="23.831" cy="23.831" r="23.831"/>
  <path class="st0" d="M28.823,20.108c1.731,1.237,3.852,1.965,6.142,1.965v-4.405c-.433,0-.866-.045-1.29-.135v3.468c-2.29,0-4.411-.728-6.142-1.964v8.99c0,4.497-3.647,8.143-8.147,8.143-1.679,0-3.239-.507-4.535-1.377,1.479,1.512,3.542,2.45,5.825,2.45,4.5,0,8.147-3.646,8.147-8.143v-8.99h0v-.002ZM30.414,15.664c-.885-.966-1.465-2.215-1.591-3.595v-.567h-1.222c.308,1.754,1.357,3.253,2.814,4.161h0ZM17.696,31.34c-.494-.648-.761-1.44-.76-2.255,0-2.057,1.668-3.725,3.727-3.725.384,0,.765.059,1.13.174v-4.504c-.427-.058-.858-.083-1.289-.074v3.506c-.366-.116-.747-.175-1.131-.174-2.058,0-3.727,1.668-3.727,3.725,0,1.454.834,2.714,2.05,3.327Z"/>
  <path class="st1" d="M27.533,19.036c1.732,1.237,3.852,1.964,6.142,1.964v-3.468c-1.278-.272-2.41-.94-3.261-1.869-1.457-.908-2.506-2.407-2.814-4.161h-3.211v17.595c-.007,2.051-1.673,3.712-3.727,3.712-1.21,0-2.286-.577-2.967-1.47-1.216-.613-2.05-1.873-2.05-3.327,0-2.057,1.668-3.725,3.727-3.725.394,0,.774.061,1.131.174v-3.506c-4.42.091-7.975,3.701-7.975,8.141,0,2.216.885,4.225,2.322,5.693,1.296.87,2.857,1.377,4.535,1.377,4.499,0,8.147-3.646,8.147-8.143v-8.99.003Z"/>
  <path class="st2" d="M33.675,17.533v-.938c-1.153.002-2.283-.321-3.261-.931.866.947,2.006,1.601,3.261,1.869ZM27.6,11.502c-.029-.168-.052-.336-.068-.506v-.567h-4.433v17.595c-.007,2.051-1.673,3.712-3.727,3.712-.603,0-1.172-.143-1.677-.397.681.893,1.756,1.47,2.967,1.47,2.054,0,3.72-1.661,3.727-3.712V11.502h3.211ZM20.504,20.957v-.998c-.371-.051-.744-.076-1.118-.076-4.5,0-8.147,3.646-8.147,8.142,0,2.819,1.434,5.304,3.612,6.765-1.437-1.468-2.322-3.477-2.322-5.693,0-4.44,3.555-8.049,7.975-8.141h0Z"/>
</svg>